<svg xmlns="http://www.w3.org/2000/svg" viewBox="0 0 881.18 298.82"><defs><style>.cls-1{fill:#fff;}</style></defs><title>Asset 6</title><g id="Layer_2" data-name="Layer 2"><g id="Layer_1-2" data-name="Layer 1"><path class="cls-1" d="M124.4,198c0,40.4-18.4,64-33.6,76.8-18.4,15.6-44,24-72,24A143.71,143.71,0,0,1,0,297.62V250a73.41,73.41,0,0,0,18.8,2.4c17.2,0,32-4.8,42.4-13.2C72,230,77.6,216,77.6,198V2h46.8Z"/><path class="cls-1" d="M881.18,274.42a172.09,172.09,0,0,1-24,12.8,151.62,151.62,0,0,1-58,11.6,148.3,148.3,0,0,1-148.4-148.4,151.57,151.57,0,0,1,11.6-58,151.67,151.67,0,0,1,32-47.2,139.94,139.94,0,0,1,47.2-31.6c18-8,37.6-11.6,57.6-11.6a144.47,144.47,0,0,1,58,11.6c2,.8,4.4,2,6.4,2.8v54.8a101.84,101.84,0,0,0-136.4,7.2,101.82,101.82,0,1,0,144,144,133.16,133.16,0,0,0,10-11.2Z"/><path class="cls-1" d="M596.46,127.15a78.31,78.31,0,0,1-11,5.86,69.47,69.47,0,0,1-26.53,5.3A67.8,67.8,0,0,1,491.1,70.45a69.47,69.47,0,0,1,5.3-26.53A69.53,69.53,0,0,1,511,22.34,63.85,63.85,0,0,1,532.62,7.89,64.58,64.58,0,0,1,559,2.58a66.08,66.08,0,0,1,26.53,5.31c.91.37,2,.91,2.92,1.28V34.23a46.74,46.74,0,0,0-76.09,36.22,46.57,46.57,0,0,0,79.57,32.93,62,62,0,0,0,4.57-5.13Z"/><path class="cls-1" d="M403.74,298.79V147.08L314.41,280.31,224.7,147.08V298.79H180V0L314.41,200.22,448.79,0V298.79Z"/></g></g></svg>